<?xml version="1.0" standalone="no"?>
<!DOCTYPE svg PUBLIC "-//W3C//DTD SVG 20010904//EN"
 "http://www.w3.org/TR/2001/REC-SVG-20010904/DTD/svg10.dtd">
<svg version="1.0" xmlns="http://www.w3.org/2000/svg"
 width="1281.000000pt" height="215.000000pt" viewBox="0 0 1281.000000 215.000000"
 preserveAspectRatio="xMidYMid meet">
<metadata>
Created by potrace 1.16, written by Peter Selinger 2001-2019
</metadata>
<g transform="translate(0.000000,215.000000) scale(0.100000,-0.100000)"
fill="#000000" stroke="none">
<path d="M10721 1895 c-45 -64 -84 -122 -88 -130 -4 -12 7 -15 58 -15 l64 0
118 124 c64 69 117 127 117 130 0 3 -42 6 -94 6 l-94 0 -81 -115z"/>
<path d="M1045 1684 c-118 -25 -207 -75 -300 -168 -126 -125 -175 -244 -175
-427 0 -187 55 -324 180 -450 124 -125 248 -172 455 -173 139 0 212 16 323 70
64 31 203 143 202 163 -1 9 -88 71 -100 71 -7 0 -37 -23 -68 -51 -207 -185
-516 -182 -709 7 -98 96 -143 207 -143 354 0 148 45 254 148 352 99 95 211
139 352 139 143 0 253 -44 353 -142 34 -32 63 -59 64 -59 8 0 103 75 103 81 0
3 -33 38 -74 77 -125 119 -266 172 -451 171 -49 0 -121 -7 -160 -15z"/>
<path d="M6045 1686 c-77 -18 -123 -38 -201 -87 -168 -107 -284 -319 -284
-524 0 -260 174 -503 420 -585 89 -30 250 -37 350 -16 222 47 414 232 465 447
19 82 19 236 0 318 -45 191 -205 362 -399 426 -99 33 -259 42 -351 21z m290
-138 c156 -51 289 -195 324 -349 15 -62 13 -185 -3 -244 -43 -162 -166 -293
-325 -345 -127 -42 -289 -22 -401 50 -63 40 -144 128 -176 191 -100 198 -50
458 115 599 139 119 301 153 466 98z"/>
<path d="M7605 1690 c-221 -40 -405 -195 -476 -401 -30 -86 -37 -247 -15 -348
31 -147 127 -291 249 -375 199 -137 539 -138 752 -1 54 34 145 119 145 134 0
11 -86 71 -100 71 -7 0 -38 -23 -69 -52 -74 -68 -174 -115 -277 -130 -156 -23
-318 30 -427 139 -101 101 -147 210 -147 350 0 218 127 395 337 469 52 18 89
24 159 24 149 0 256 -42 361 -142 l62 -60 51 37 c27 20 50 41 50 45 0 17 -107
118 -162 154 -95 60 -195 88 -328 92 -63 2 -137 -1 -165 -6z"/>
<path d="M2240 1089 c-151 -320 -277 -586 -278 -591 -2 -5 31 -8 74 -6 l78 3
91 192 90 193 241 0 241 0 93 -195 94 -195 73 0 c40 0 73 2 73 3 0 2 -123 267
-273 588 -246 527 -275 584 -297 587 -24 3 -39 -27 -300 -579z m392 104 c48
-102 88 -188 88 -190 0 -2 -83 -3 -184 -3 l-184 0 91 194 c51 107 94 192 96
190 2 -2 44 -88 93 -191z"/>
<path d="M3400 1080 l0 -590 65 0 65 0 0 270 0 270 28 0 c24 0 53 -34 236
-270 l208 -270 79 0 c43 0 79 4 79 9 0 5 -90 125 -200 266 -110 141 -200 261
-200 266 0 5 24 9 53 9 141 0 253 64 307 176 34 70 35 209 1 274 -51 99 -133
154 -254 170 -39 5 -161 10 -269 10 l-198 0 0 -590z m425 460 c120 -18 180
-79 180 -185 0 -76 -33 -133 -98 -167 -38 -21 -59 -23 -209 -26 l-168 -4 0
196 0 196 113 0 c61 0 143 -5 182 -10z"/>
<path d="M4510 1081 l0 -591 65 0 65 0 0 270 0 270 28 0 c24 0 52 -31 236
-270 l209 -270 84 0 c62 0 82 3 77 12 -4 6 -97 127 -206 267 -109 140 -198
258 -198 262 0 3 36 9 81 12 189 13 309 134 309 312 0 91 -25 152 -89 216 -85
84 -110 90 -413 96 l-248 5 0 -591z m425 458 c86 -12 135 -42 164 -101 53
-111 -6 -234 -128 -268 -20 -5 -100 -10 -178 -10 l-143 0 0 195 0 195 108 0
c59 0 138 -5 177 -11z"/>
<path d="M8600 1080 l0 -590 340 0 341 0 -3 63 -3 62 -272 3 -273 2 0 220 0
220 275 0 275 0 0 65 0 65 -275 0 -275 0 0 180 0 180 280 0 280 0 0 60 0 60
-345 0 -345 0 0 -590z"/>
<path d="M9600 1081 l0 -591 65 0 65 0 0 270 0 270 28 0 c24 0 53 -34 236
-270 l209 -270 85 0 c66 0 82 3 75 13 -6 6 -96 124 -202 260 -106 136 -194
254 -197 261 -4 10 15 14 75 19 135 9 237 72 284 176 17 36 21 66 21 136 0
110 -22 164 -94 228 -79 71 -117 79 -402 85 l-248 4 0 -591z m425 458 c86 -12
135 -42 164 -101 53 -111 -6 -234 -128 -268 -20 -5 -102 -10 -183 -10 l-148 0
0 195 0 195 113 0 c61 0 143 -5 182 -11z"/>
<path d="M10682 1083 l3 -588 68 -3 67 -3 0 591 0 590 -70 0 -70 0 2 -587z"/>
<path d="M11371 1095 c-149 -316 -274 -582 -278 -591 -5 -13 6 -14 72 -12 l77
3 91 193 90 192 242 0 241 0 89 -187 c49 -104 92 -192 95 -196 4 -4 39 -7 77
-5 l71 3 -273 585 c-245 525 -275 585 -297 588 -24 3 -40 -28 -297 -573z m390
98 l88 -188 -89 -3 c-49 -1 -131 -1 -183 0 l-93 3 90 192 c50 106 92 190 94
188 3 -2 44 -89 93 -192z"/>
</g>
</svg>
