<?xml version="1.0" encoding="utf-8"?>
<!-- Generator: Adobe Illustrator 25.4.1, SVG Export Plug-In . SVG Version: 6.00 Build 0)  -->
<svg version="1.1" id="Capa_1" xmlns="http://www.w3.org/2000/svg" xmlns:xlink="http://www.w3.org/1999/xlink" x="0px" y="0px"
	 viewBox="0 0 841.89 595.28" style="enable-background:new 0 0 841.89 595.28;" xml:space="preserve">
<style type="text/css">
	.st0{fill:#1F3556;}
	
		.st1{clip-path:url(#SVGID_00000074412621519365878070000000286296123669734272_);fill:url(#SVGID_00000169527390775284931410000005030894082480050093_);}
	.st2{fill:#C6C7CC;}
	.st3{fill:#CED0D3;}
	
		.st4{clip-path:url(#SVGID_00000091733913812359098420000012337086816872434566_);fill:url(#SVGID_00000054257079549591981050000013430387607989649569_);}
	
		.st5{clip-path:url(#SVGID_00000152222171723863193750000012209465205566574995_);fill:url(#SVGID_00000108278557662861026370000008813732813511580591_);}
	
		.st6{clip-path:url(#SVGID_00000165927539266730224620000006002212905867131312_);fill:url(#SVGID_00000106831455336837039870000012644236319352027016_);}
	
		.st7{clip-path:url(#SVGID_00000176748640512096444240000002811327253282353560_);fill:url(#SVGID_00000009562750801084767620000009396951172841285510_);}
	
		.st8{clip-path:url(#SVGID_00000162316661742169234540000010636383166214761129_);fill:url(#SVGID_00000163068220765549528830000010700647420222200244_);}
	
		.st9{clip-path:url(#SVGID_00000073002385061807527950000010546381870514660228_);fill:url(#SVGID_00000113328455459675976410000000702234780234568355_);}
	
		.st10{clip-path:url(#SVGID_00000147914639352609811830000001884424889439422650_);fill:url(#SVGID_00000129914526727572983300000012589208301261334438_);}
	
		.st11{clip-path:url(#SVGID_00000054960077436635350160000002126720017512652708_);fill:url(#SVGID_00000168826499159153625670000017988647298806358444_);}
	
		.st12{clip-path:url(#SVGID_00000164474385299671021540000015852589411576630184_);fill:url(#SVGID_00000181079020864056413390000001414678664803264384_);}
	
		.st13{clip-path:url(#SVGID_00000065074283024288221590000001598097124272014753_);fill:url(#SVGID_00000134234345564670708720000014398237522997105825_);}
	
		.st14{clip-path:url(#SVGID_00000060003617170971881670000000197113509524175529_);fill:url(#SVGID_00000039814502191193257880000017094871995723842198_);}
	
		.st15{clip-path:url(#SVGID_00000008854942627422726470000011651582320125829819_);fill:url(#SVGID_00000149364493995167785880000002268751026083583162_);}
	.st16{fill:#A18033;}
	.st17{fill:#CBA329;}
	.st18{fill:#D1B937;}
	.st19{fill:#B89043;}
	
		.st20{clip-path:url(#SVGID_00000006673079678018380100000003324865682593926821_);fill:url(#SVGID_00000076605275793818831870000014169899183100453014_);}
	
		.st21{clip-path:url(#SVGID_00000101812481322216532780000000861410420310612912_);fill:url(#SVGID_00000149382813553517951600000003030477861781701520_);}
	.st22{fill:#BF9A58;}
	.st23{fill:none;stroke:#BF9A58;stroke-width:2;stroke-linecap:round;stroke-miterlimit:10;}
	.st24{fill:none;stroke:#BF9A58;stroke-miterlimit:10;}
	.st25{fill:none;stroke:#F9B233;stroke-width:3;stroke-linecap:round;stroke-miterlimit:10;}
	.st26{fill:none;stroke:#BF9A58;stroke-width:3;stroke-linecap:round;stroke-miterlimit:10;stroke-dasharray:0,5.0036,0,0,0,0;}
	.st27{fill:#CCCCCC;}
	.st28{fill:#FFFFFF;}
</style>
<rect y="0.37" class="st0" width="841.89" height="594.53"/>
<g>
	<g>
		<defs>
			<path id="SVGID_00000024004017858881718020000005845596899240391316_" d="M440.66,286.87c-3.09,2.32-13.37,6.02-18.72,7.69
				c-5.36-1.66-15.65-5.37-18.74-7.69c-1.99-1.49-2.25-2.49-2.25-2.49c-0.02,0.02-0.04,0.03-0.07,0.05l-8.99,26.34
				c4.25,15.41,30.04,21.97,30.04,21.97h0.01c0,0,6.45-1.64,13.42-5.2c6.98-3.56,14.48-9.06,16.61-16.76l-8.99-26.34
				c-0.02-0.02-0.04-0.03-0.07-0.05C442.91,284.38,442.65,285.38,440.66,286.87"/>
		</defs>
		<clipPath id="SVGID_00000051350803941665064330000016727763185374525112_">
			<use xlink:href="#SVGID_00000024004017858881718020000005845596899240391316_"  style="overflow:visible;"/>
		</clipPath>
		
			<linearGradient id="SVGID_00000149383018200583136250000000338384597357289858_" gradientUnits="userSpaceOnUse" x1="-147.6305" y1="5122.3413" x2="-146.1902" y2="5122.3413" gradientTransform="matrix(41.7122 0 0 -41.7122 6549.8813 213972.5156)">
			<stop  offset="0" style="stop-color:#908E93"/>
			<stop  offset="0.184" style="stop-color:#908E93"/>
			<stop  offset="0.9995" style="stop-color:#DADBDE"/>
			<stop  offset="1" style="stop-color:#DADBDE"/>
		</linearGradient>
		
			<rect x="391.89" y="284.38" style="clip-path:url(#SVGID_00000051350803941665064330000016727763185374525112_);fill:url(#SVGID_00000149383018200583136250000000338384597357289858_);" width="60.08" height="48.36"/>
	</g>
	<path class="st2" d="M422.06,294.52c-0.04,0.01-0.08,0.03-0.12,0.04c-5.36-1.67-15.65-5.37-18.74-7.69
		c-1.99-1.49-2.25-2.49-2.25-2.49c-0.02,0.02-0.04,0.03-0.07,0.06l-8.99,26.34c4.25,15.4,30.03,21.96,30.03,21.96h0.01
		c0,0,0.05-0.01,0.12-0.03V294.52z"/>
	<path class="st3" d="M433.72,204.87c9.21,1.75,14.58,11.47,11.55,20.34l-1.76,5.16l-0.6,1.63c-0.02,0.06-0.04,0.11-0.07,0.17
		c0,0-0.25-1-2.24-2.48c-0.57-0.43-1.4-0.91-2.4-1.42c-5.07-2.57-10.6-3.87-16.14-3.89c-5.62-0.02-11.24,1.28-16.39,3.89
		c-1,0.51-1.82,0.99-2.4,1.42c-1.99,1.48-2.24,2.48-2.24,2.48c-0.02-0.06-0.04-0.11-0.07-0.17l-0.6-1.63l-1.76-5.15
		c-3.12-9.13,2.69-18.89,12.2-20.47c1.81-0.3,3.73-0.44,5.8-0.44h10.64C429.58,204.31,431.72,204.49,433.72,204.87"/>
	<g>
		<defs>
			<path id="SVGID_00000126319322864361417210000015152674898738481565_" d="M421.93,204.31v20.07c0.04,0,0.08,0,0.12,0
				c5.54,0.02,11.08,1.32,16.14,3.89c1,0.51,1.82,0.99,2.4,1.42c1.98,1.48,2.24,2.48,2.24,2.48c0.02-0.06,0.04-0.11,0.06-0.17
				l0.6-1.63l1.76-5.16c3.03-8.87-2.34-18.59-11.55-20.34c-2-0.38-4.14-0.56-6.46-0.56H421.93z"/>
		</defs>
		<clipPath id="SVGID_00000141443944680097052060000002861039769573383306_">
			<use xlink:href="#SVGID_00000126319322864361417210000015152674898738481565_"  style="overflow:visible;"/>
		</clipPath>
		
			<linearGradient id="SVGID_00000128473378274259242670000000866398045253998008_" gradientUnits="userSpaceOnUse" x1="-183.2019" y1="5069.9326" x2="-181.7616" y2="5069.9326" gradientTransform="matrix(21.6595 -7.4554 -7.4554 -21.6595 42172.3633 108674.5156)">
			<stop  offset="0" style="stop-color:#908E93"/>
			<stop  offset="0.184" style="stop-color:#908E93"/>
			<stop  offset="0.9995" style="stop-color:#DADBDE"/>
			<stop  offset="1" style="stop-color:#DADBDE"/>
		</linearGradient>
		
			<polygon style="clip-path:url(#SVGID_00000141443944680097052060000002861039769573383306_);fill:url(#SVGID_00000128473378274259242670000000866398045253998008_);" points="
			413.36,207.26 445.51,196.19 456.87,229.21 424.73,240.28 		"/>
	</g>
	<g>
		<defs>
			<path id="SVGID_00000078003437449170348730000010044446794749758880_" d="M408.48,233.5c-0.78,0.4-1.42,0.78-1.88,1.12
				c-0.18,0.15-0.34,0.27-0.49,0.4c-0.52,0.43-0.87,1-1.1,1.62c0.94,7.08,1.43,14.31,1.43,21.65c0,7.35-0.49,14.59-1.43,21.68
				c0.22,0.63,0.58,1.2,1.11,1.63c0.12,0.1,0.26,0.22,0.42,0.33c0.47,0.35,1.13,0.74,1.93,1.15c8.51,4.35,18.66,4.35,27.17,0
				c0.8-0.41,1.45-0.79,1.91-1.14c0.16-0.12,0.31-0.23,0.45-0.35c0.51-0.42,0.89-0.98,1.1-1.59c-0.94-7.1-1.43-14.35-1.43-21.71
				c0-7.35,0.49-14.59,1.43-21.67c-0.22-0.62-0.6-1.18-1.11-1.61c-0.14-0.12-0.31-0.25-0.49-0.39c-0.46-0.34-1.1-0.72-1.87-1.12
				c-4.25-2.18-8.91-3.27-13.57-3.27C417.39,230.23,412.73,231.32,408.48,233.5"/>
		</defs>
		<clipPath id="SVGID_00000148635681824520741840000012279222238906094260_">
			<use xlink:href="#SVGID_00000078003437449170348730000010044446794749758880_"  style="overflow:visible;"/>
		</clipPath>
		
			<linearGradient id="SVGID_00000039127223706606409130000011951978277115136384_" gradientUnits="userSpaceOnUse" x1="-142.6026" y1="5070.5977" x2="-141.1623" y2="5070.5977" gradientTransform="matrix(23.663 0 0 -23.663 3779.4241 120244.5234)">
			<stop  offset="0" style="stop-color:#908E93"/>
			<stop  offset="0.184" style="stop-color:#908E93"/>
			<stop  offset="0.9995" style="stop-color:#DADBDE"/>
			<stop  offset="1" style="stop-color:#DADBDE"/>
		</linearGradient>
		
			<rect x="405.02" y="230.23" style="clip-path:url(#SVGID_00000148635681824520741840000012279222238906094260_);fill:url(#SVGID_00000039127223706606409130000011951978277115136384_);" width="34.08" height="57.21"/>
	</g>
	<path class="st3" d="M422.06,230.23c-4.66,0-9.33,1.09-13.58,3.27c-0.78,0.4-1.42,0.78-1.88,1.12c-0.18,0.14-0.34,0.27-0.49,0.4
		c-0.52,0.43-0.88,1-1.1,1.62c0.94,7.08,1.43,14.31,1.43,21.65c0,7.35-0.49,14.59-1.43,21.68c0.22,0.63,0.58,1.2,1.11,1.64
		c0.12,0.1,0.27,0.22,0.42,0.33c0.47,0.35,1.13,0.74,1.93,1.14c4.26,2.18,8.92,3.26,13.58,3.26V230.23z"/>
	<g>
		<defs>
			<path id="SVGID_00000132797242249487701740000003678350373512626872_" d="M390.16,243.01c0,2.85,0.97,5.62,2.76,7.85l9.2,11.5
				v-8.88c0-4.8-0.99-9.54-2.91-13.94l-9.05-20.75V243.01z"/>
		</defs>
		<clipPath id="SVGID_00000077326514690184703240000010281748823210144179_">
			<use xlink:href="#SVGID_00000132797242249487701740000003678350373512626872_"  style="overflow:visible;"/>
		</clipPath>
		
			<linearGradient id="SVGID_00000085233061280086261080000008171617758479795875_" gradientUnits="userSpaceOnUse" x1="-121.9254" y1="4848.5093" x2="-120.4851" y2="4848.5093" gradientTransform="matrix(8.3013 0 0 -8.3013 1405.9075 40489.4766)">
			<stop  offset="0" style="stop-color:#DADBDE"/>
			<stop  offset="4.960320e-04" style="stop-color:#DADBDE"/>
			<stop  offset="0.816" style="stop-color:#908E93"/>
			<stop  offset="1" style="stop-color:#908E93"/>
		</linearGradient>
		
			<rect x="390.16" y="218.78" style="clip-path:url(#SVGID_00000077326514690184703240000010281748823210144179_);fill:url(#SVGID_00000085233061280086261080000008171617758479795875_);" width="11.96" height="43.58"/>
	</g>
	<g>
		<defs>
			<path id="SVGID_00000136393644979885028040000004719229122101238944_" d="M390.16,296.02l9.59-17.5
				c1.55-2.83,2.37-6.01,2.37-9.23v-1.2c0-1.46-0.62-2.86-1.71-3.84l-10.24-9.23V296.02z"/>
		</defs>
		<clipPath id="SVGID_00000147900670884830408450000010548234316939310233_">
			<use xlink:href="#SVGID_00000136393644979885028040000004719229122101238944_"  style="overflow:visible;"/>
		</clipPath>
		
			<linearGradient id="SVGID_00000014626998991366102910000017670864241195891097_" gradientUnits="userSpaceOnUse" x1="-121.9214" y1="4847.2222" x2="-120.481" y2="4847.2222" gradientTransform="matrix(8.3013 0 0 -8.3013 1405.9845 40513.7422)">
			<stop  offset="0" style="stop-color:#DADBDE"/>
			<stop  offset="4.960320e-04" style="stop-color:#DADBDE"/>
			<stop  offset="0.816" style="stop-color:#908E93"/>
			<stop  offset="1" style="stop-color:#908E93"/>
		</linearGradient>
		
			<rect x="390.16" y="255.02" style="clip-path:url(#SVGID_00000147900670884830408450000010548234316939310233_);fill:url(#SVGID_00000014626998991366102910000017670864241195891097_);" width="11.96" height="41.01"/>
	</g>
	<g>
		<defs>
			<path id="SVGID_00000026122775374386626710000016734296009554652808_" d="M444.66,239.54c-1.92,4.4-2.91,9.14-2.91,13.94v8.88
				l9.2-11.5c1.78-2.23,2.76-5,2.76-7.85v-24.23L444.66,239.54z"/>
		</defs>
		<clipPath id="SVGID_00000114062977304232047750000014976209285271906207_">
			<use xlink:href="#SVGID_00000026122775374386626710000016734296009554652808_"  style="overflow:visible;"/>
		</clipPath>
		
			<linearGradient id="SVGID_00000062152068119818739040000008050850362290934416_" gradientUnits="userSpaceOnUse" x1="-120.2708" y1="4848.5093" x2="-118.8304" y2="4848.5093" gradientTransform="matrix(8.3013 0 0 -8.3013 1437.1061 40489.4766)">
			<stop  offset="0" style="stop-color:#908E93"/>
			<stop  offset="0.184" style="stop-color:#908E93"/>
			<stop  offset="0.9995" style="stop-color:#DADBDE"/>
			<stop  offset="1" style="stop-color:#DADBDE"/>
		</linearGradient>
		
			<rect x="441.75" y="218.78" style="clip-path:url(#SVGID_00000114062977304232047750000014976209285271906207_);fill:url(#SVGID_00000062152068119818739040000008050850362290934416_);" width="11.96" height="43.58"/>
	</g>
	<g>
		<defs>
			<path id="SVGID_00000032612729018349786890000010245278964194412733_" d="M453.34,219.63c-0.16,1.78-0.17,3.56-0.22,5.35
				c-0.06,2.01-0.39,13.56-0.82,16.92c-0.43,3.29-1.04,5.97-2.58,8.66c-1.66,2.91-3.38,5.87-5.49,8.48
				c-0.83,1.03-1.71,2.02-2.48,3.09v0.23l9.2-11.5c1.78-2.23,2.76-5,2.76-7.85v-24.23L453.34,219.63z"/>
		</defs>
		<clipPath id="SVGID_00000015324701270187300220000000385453441856100254_">
			<use xlink:href="#SVGID_00000032612729018349786890000010245278964194412733_"  style="overflow:visible;"/>
		</clipPath>
		
			<linearGradient id="SVGID_00000132083167434404072800000006611866950293673132_" gradientUnits="userSpaceOnUse" x1="-119.9529" y1="4848.5103" x2="-118.5125" y2="4848.5103" gradientTransform="matrix(8.3013 0 0 -8.3013 1443.1074 40489.6367)">
			<stop  offset="0" style="stop-color:#908E93"/>
			<stop  offset="0.184" style="stop-color:#908E93"/>
			<stop  offset="0.9995" style="stop-color:#DADBDE"/>
			<stop  offset="1" style="stop-color:#DADBDE"/>
		</linearGradient>
		
			<rect x="441.75" y="218.78" style="clip-path:url(#SVGID_00000015324701270187300220000000385453441856100254_);fill:url(#SVGID_00000132083167434404072800000006611866950293673132_);" width="11.96" height="43.58"/>
	</g>
	<g>
		<defs>
			<path id="SVGID_00000068662310875248771630000009626186483108865714_" d="M443.46,264.25c-1.09,0.98-1.71,2.38-1.71,3.84v1.2
				c0,3.23,0.81,6.4,2.37,9.23l9.59,17.5v-41L443.46,264.25z"/>
		</defs>
		<clipPath id="SVGID_00000070087192648295780000000006359279152511858612_">
			<use xlink:href="#SVGID_00000068662310875248771630000009626186483108865714_"  style="overflow:visible;"/>
		</clipPath>
		
			<linearGradient id="SVGID_00000058576269096506555970000009375482798722981013_" gradientUnits="userSpaceOnUse" x1="-120.2756" y1="4847.2222" x2="-118.8352" y2="4847.2222" gradientTransform="matrix(8.3013 0 0 -8.3013 1437.0162 40513.7422)">
			<stop  offset="0" style="stop-color:#908E93"/>
			<stop  offset="0.184" style="stop-color:#908E93"/>
			<stop  offset="0.9995" style="stop-color:#DADBDE"/>
			<stop  offset="1" style="stop-color:#DADBDE"/>
		</linearGradient>
		
			<rect x="441.75" y="255.02" style="clip-path:url(#SVGID_00000070087192648295780000000006359279152511858612_);fill:url(#SVGID_00000058576269096506555970000009375482798722981013_);" width="11.96" height="41.01"/>
	</g>
	<g>
		<defs>
			<path id="SVGID_00000047018831115144984720000015075242637671781552_" d="M452.41,279.35c-0.11,1.47-0.03,5.8-1.75,5.8
				c-1.7,0-3.43-2.58-4.78-4.55c-0.84-1.22-2.04-3.19-2.85-4.42c0.31,0.8,0.67,1.59,1.09,2.35l9.59,17.5v-41
				C453.71,255.02,452.6,276.88,452.41,279.35"/>
		</defs>
		<clipPath id="SVGID_00000023264454791366112310000002199271271985905852_">
			<use xlink:href="#SVGID_00000047018831115144984720000015075242637671781552_"  style="overflow:visible;"/>
		</clipPath>
		
			<linearGradient id="SVGID_00000158010193701015247030000003817627057021369985_" gradientUnits="userSpaceOnUse" x1="-136.1118" y1="5009.4028" x2="-134.6715" y2="5009.4028" gradientTransform="matrix(15.715 0 0 -15.715 2581.3518 78998.2422)">
			<stop  offset="0" style="stop-color:#908E93"/>
			<stop  offset="0.184" style="stop-color:#908E93"/>
			<stop  offset="0.9995" style="stop-color:#DADBDE"/>
			<stop  offset="1" style="stop-color:#DADBDE"/>
		</linearGradient>
		
			<rect x="443.03" y="255.02" style="clip-path:url(#SVGID_00000023264454791366112310000002199271271985905852_);fill:url(#SVGID_00000158010193701015247030000003817627057021369985_);" width="10.68" height="41"/>
	</g>
	<g>
		<defs>
			<path id="SVGID_00000181780717826175136320000017496517817855319731_" d="M390.16,243.01c0,2.85,0.97,5.62,2.76,7.85l9.2,11.5
				v-0.23c-0.78-1.07-1.65-2.07-2.48-3.09c-2.11-2.61-3.83-5.58-5.49-8.48c-1.54-2.69-2.15-5.37-2.58-8.66
				c-0.43-3.35-0.75-14.91-0.82-16.92c-0.05-1.79-0.07-3.57-0.22-5.35l-0.37-0.85V243.01z"/>
		</defs>
		<clipPath id="SVGID_00000098217613399498052540000004978802707031547537_">
			<use xlink:href="#SVGID_00000181780717826175136320000017496517817855319731_"  style="overflow:visible;"/>
		</clipPath>
		
			<linearGradient id="SVGID_00000145753495038521443280000008190097997202532525_" gradientUnits="userSpaceOnUse" x1="-186.1762" y1="4848.5103" x2="-184.7359" y2="4848.5103" gradientTransform="matrix(-8.3013 0 0 -8.3013 -1148.9766 40489.6367)">
			<stop  offset="0" style="stop-color:#908E93"/>
			<stop  offset="0.184" style="stop-color:#908E93"/>
			<stop  offset="0.9995" style="stop-color:#DADBDE"/>
			<stop  offset="1" style="stop-color:#DADBDE"/>
		</linearGradient>
		
			<rect x="390.16" y="218.78" style="clip-path:url(#SVGID_00000098217613399498052540000004978802707031547537_);fill:url(#SVGID_00000145753495038521443280000008190097997202532525_);" width="11.96" height="43.58"/>
	</g>
	<g>
		<defs>
			<path id="SVGID_00000183245438217202297660000006827829591614495159_" d="M390.16,296.02l9.59-17.5
				c0.42-0.76,0.78-1.55,1.09-2.35c-0.81,1.23-2.01,3.2-2.85,4.42c-1.35,1.97-3.08,4.55-4.77,4.55c-1.72,0-1.64-4.32-1.75-5.8
				c-0.19-2.47-1.3-24.33-1.3-24.33V296.02z"/>
		</defs>
		<clipPath id="SVGID_00000181799689917200469560000000335738881784098968_">
			<use xlink:href="#SVGID_00000183245438217202297660000006827829591614495159_"  style="overflow:visible;"/>
		</clipPath>
		
			<linearGradient id="SVGID_00000093872555293378719340000006043271422349190038_" gradientUnits="userSpaceOnUse" x1="-171.0938" y1="5009.4028" x2="-169.6535" y2="5009.4028" gradientTransform="matrix(-15.715 0 0 -15.715 -2287.2209 78998.2422)">
			<stop  offset="0" style="stop-color:#908E93"/>
			<stop  offset="0.184" style="stop-color:#908E93"/>
			<stop  offset="0.9995" style="stop-color:#DADBDE"/>
			<stop  offset="1" style="stop-color:#DADBDE"/>
		</linearGradient>
		
			<rect x="390.16" y="255.02" style="clip-path:url(#SVGID_00000181799689917200469560000000335738881784098968_);fill:url(#SVGID_00000093872555293378719340000006043271422349190038_);" width="10.68" height="41"/>
	</g>
	<g>
		<defs>
			<path id="SVGID_00000026846908319292066550000004829814114486408601_" d="M400.88,284.44l-8.99,26.34
				c2.83,10.25,15.17,16.58,23.13,19.67c-1.56-1.25-7.17-5.23-9.68-7.31c-3.55-2.94-6.77-6.71-8.39-11.13
				c-0.82-2.24-1.08-4.7-0.93-7.07c0.2-3.1,4.08-15.13,4.28-16.24c0.22-1.26,0.5-2.54,0.95-3.74c-0.24-0.36-0.3-0.57-0.3-0.57
				C400.93,284.41,400.91,284.42,400.88,284.44"/>
		</defs>
		<clipPath id="SVGID_00000133489327539829959290000017042085111495030428_">
			<use xlink:href="#SVGID_00000026846908319292066550000004829814114486408601_"  style="overflow:visible;"/>
		</clipPath>
		
			<linearGradient id="SVGID_00000063626382536984113320000018220660565557738125_" gradientUnits="userSpaceOnUse" x1="-147.6305" y1="5122.3496" x2="-146.1902" y2="5122.3496" gradientTransform="matrix(41.7122 0 0 -41.7122 6549.8813 213971.7188)">
			<stop  offset="0" style="stop-color:#908E93"/>
			<stop  offset="0.184" style="stop-color:#908E93"/>
			<stop  offset="0.9995" style="stop-color:#DADBDE"/>
			<stop  offset="1" style="stop-color:#DADBDE"/>
		</linearGradient>
		
			<rect x="391.89" y="284.38" style="clip-path:url(#SVGID_00000133489327539829959290000017042085111495030428_);fill:url(#SVGID_00000063626382536984113320000018220660565557738125_);" width="23.13" height="46.06"/>
	</g>
	<g>
		<defs>
			<path id="SVGID_00000079464523057779810330000007938820123850540939_" d="M445.74,302.91c0.45,2.62,0.84,5.3,0.51,7.97
				c-0.29,2.29-1.06,4.55-2.21,6.56c-2.07,3.61-5.38,6.28-8.88,8.45c-3.63,2.25-7.5,4.29-11.38,6.09c0.13,0.04,0.27,0.08,0.4,0.11
				c2.47-0.77,6.71-2.27,11.18-4.55c6.98-3.56,14.48-9.06,16.61-16.76l-8.64-25.31C443.41,291.37,444.75,297.1,445.74,302.91"/>
		</defs>
		<clipPath id="SVGID_00000088133682244639512050000016876581347259717791_">
			<use xlink:href="#SVGID_00000079464523057779810330000007938820123850540939_"  style="overflow:visible;"/>
		</clipPath>
		
			<linearGradient id="SVGID_00000020362871580712831220000006355611227827612035_" gradientUnits="userSpaceOnUse" x1="-160.9644" y1="5259.6602" x2="-159.5241" y2="5259.6602" gradientTransform="matrix(-41.7122 0 0 41.7122 -6241.1084 -219083.0469)">
			<stop  offset="0" style="stop-color:#908E93"/>
			<stop  offset="0.184" style="stop-color:#908E93"/>
			<stop  offset="0.9995" style="stop-color:#DADBDE"/>
			<stop  offset="1" style="stop-color:#DADBDE"/>
		</linearGradient>
		
			<rect x="423.78" y="285.46" style="clip-path:url(#SVGID_00000088133682244639512050000016876581347259717791_);fill:url(#SVGID_00000020362871580712831220000006355611227827612035_);" width="28.19" height="46.63"/>
	</g>
	<path class="st16" d="M426.14,268.23v4.44c0,2.32-1.88,4.2-4.2,4.2c-2.32,0-4.2-1.88-4.2-4.2V245.6c0-2.32,1.88-4.2,4.2-4.2
		c2.32,0,4.2,1.88,4.2,4.2v10.31c0,0.25,0.29,0.38,0.48,0.22l4.8-4.08c0.89-0.76,1.41-1.87,1.41-3.04v-4.97
		c0-0.85-0.3-1.66-0.85-2.2c-0.09-0.09-0.19-0.19-0.31-0.29c-1.6-1.43-6.95-3.69-9.73-4.72c-2.78,1.02-8.13,3.29-9.73,4.72
		c-0.12,0.1-0.22,0.2-0.31,0.29c-0.55,0.54-0.84,1.35-0.84,2.19v30.24c0,0.84,0.3,1.66,0.85,2.19c0.08,0.08,0.17,0.17,0.27,0.25
		c1.61,1.43,6.97,3.71,9.77,4.73c2.79-1.02,8.15-3.3,9.76-4.73c0.1-0.09,0.2-0.18,0.28-0.26c0.55-0.54,0.85-1.35,0.85-2.19v-12.85
		c0-0.25-0.29-0.38-0.48-0.22l-4.77,3.98C426.66,265.93,426.14,267.05,426.14,268.23"/>
	<path class="st17" d="M426.14,267.39v4.44c0,2.32-1.88,4.2-4.2,4.2c-2.32,0-4.2-1.88-4.2-4.2v-27.08c0-2.32,1.88-4.2,4.2-4.2
		c2.32,0,4.2,1.88,4.2,4.2v10.31c0,0.25,0.29,0.38,0.48,0.22l4.8-4.08c0.89-0.76,1.41-1.87,1.41-3.04v-4.97
		c0-0.85-0.3-1.66-0.85-2.2c-0.09-0.09-0.19-0.19-0.31-0.29c-1.6-1.43-6.95-3.69-9.73-4.72c-2.78,1.02-8.13,3.29-9.73,4.72
		c-0.12,0.1-0.22,0.2-0.31,0.29c-0.55,0.54-0.84,1.35-0.84,2.19v30.24c0,0.84,0.3,1.66,0.85,2.19c0.08,0.08,0.17,0.17,0.27,0.25
		c1.61,1.43,6.97,3.71,9.77,4.73c2.79-1.02,8.15-3.3,9.76-4.73c0.1-0.09,0.2-0.18,0.28-0.26c0.55-0.54,0.85-1.35,0.85-2.19v-12.85
		c0-0.25-0.29-0.38-0.48-0.22l-4.77,3.98C426.66,265.08,426.14,266.2,426.14,267.39"/>
	<path class="st18" d="M418.01,278.7c-1.59-0.66-5.03-2.42-5.7-3.08c-0.96-0.95-1.02-2.12-1.03-3.38c-0.01-1.19-0.1-5.67-0.24-6.59
		v7.78c0,0.84,0.3,1.66,0.85,2.19c0.08,0.08,0.17,0.17,0.27,0.25c1.61,1.43,6.97,3.71,9.77,4.73l0-0.28
		C421.94,280.31,419.23,279.21,418.01,278.7"/>
	<path class="st19" d="M432.34,260.34l-4.77,3.98c-0.91,0.76-1.44,1.88-1.44,3.07v4.44c0,2.32-1.88,4.2-4.2,4.2v4.56
		c2.79-1.02,8.15-3.3,9.76-4.73c0.1-0.09,0.2-0.18,0.28-0.26c0.55-0.54,0.84-1.35,0.84-2.19v-12.85
		C432.82,260.32,432.53,260.18,432.34,260.34"/>
	<path class="st19" d="M431.97,240.99c-0.09-0.09-0.2-0.19-0.31-0.29c-1.6-1.43-6.95-3.69-9.73-4.72v4.56c2.32,0,4.2,1.88,4.2,4.2
		v10.31c0,0.25,0.29,0.38,0.48,0.22l4.79-4.08c0.89-0.76,1.41-1.87,1.41-3.04v-4.97C432.82,242.34,432.52,241.53,431.97,240.99"/>
	<path class="st18" d="M430.85,240.39c1.95,1.21,1.92,2.85,1.97,2.99v-0.19c0-0.85-0.3-1.66-0.85-2.2c-0.09-0.09-0.2-0.19-0.31-0.29
		c-1.6-1.43-6.95-3.69-9.73-4.72v0.27C425.99,237.79,429.7,239.68,430.85,240.39"/>
	<g>
		<defs>
			<path id="SVGID_00000140732846865954688840000009548119218740284288_" d="M398.61,225.22l1.76,5.15l0.6,1.63
				c0.02,0.05,0.05,0.11,0.07,0.17c0,0,0.25-1,2.24-2.48c0.57-0.43,1.4-0.92,2.4-1.42c1.58-0.8,3.2-1.46,4.86-2.02
				c-0.24-0.06-1.15,0.06-2.27,0.18c-1.73,0.18-3.98,0.37-5.11-0.1c-3.24-1.34-5.08-10.08-1.02-15.59c1.75-2.37,3.81-4.32,7.05-5.63
				C400.64,207.47,395.67,216.62,398.61,225.22"/>
		</defs>
		<clipPath id="SVGID_00000152245688291617533860000004274450456509521049_">
			<use xlink:href="#SVGID_00000140732846865954688840000009548119218740284288_"  style="overflow:visible;"/>
		</clipPath>
		
			<linearGradient id="SVGID_00000053528957407096807060000012630959730321506206_" gradientUnits="userSpaceOnUse" x1="-123.8311" y1="4871.0825" x2="-122.3909" y2="4871.0825" gradientTransform="matrix(8.8661 0 0 -8.8661 1495.6549 43406.082)">
			<stop  offset="0" style="stop-color:#908E93"/>
			<stop  offset="0.184" style="stop-color:#908E93"/>
			<stop  offset="0.9995" style="stop-color:#DADBDE"/>
			<stop  offset="1" style="stop-color:#DADBDE"/>
		</linearGradient>
		
			<rect x="395.67" y="205.11" style="clip-path:url(#SVGID_00000152245688291617533860000004274450456509521049_);fill:url(#SVGID_00000053528957407096807060000012630959730321506206_);" width="14.86" height="27.05"/>
	</g>
	<g>
		<defs>
			<path id="SVGID_00000094592802801648784260000007547542128847186588_" d="M440.74,209.59c3.41,4.12,3.6,8.08,2.99,11.89
				c-0.45,2.83-2.29,6.41-5.17,6.97c0.83,0.44,1.54,0.86,2.04,1.23c1.98,1.48,2.24,2.48,2.24,2.48c0.02-0.06,0.04-0.11,0.06-0.17
				l0.6-1.63l1.76-5.16c3.03-8.87-2.34-18.59-11.55-20.34c-0.37-0.07-0.75-0.12-1.13-0.18C435.73,205.71,439,207.51,440.74,209.59"
				/>
		</defs>
		<clipPath id="SVGID_00000114032353574571943360000005135724203336422587_">
			<use xlink:href="#SVGID_00000094592802801648784260000007547542128847186588_"  style="overflow:visible;"/>
		</clipPath>
		
			<linearGradient id="SVGID_00000018940503174240821050000013141116699188011662_" gradientUnits="userSpaceOnUse" x1="-124.3931" y1="4889.0684" x2="-122.9529" y2="4889.0684" gradientTransform="matrix(9.394 0 0 -9.394 1601.1388 46146.3984)">
			<stop  offset="0" style="stop-color:#908E93"/>
			<stop  offset="0.184" style="stop-color:#908E93"/>
			<stop  offset="0.9995" style="stop-color:#DADBDE"/>
			<stop  offset="1" style="stop-color:#DADBDE"/>
		</linearGradient>
		
			<rect x="432.59" y="204.69" style="clip-path:url(#SVGID_00000114032353574571943360000005135724203336422587_);fill:url(#SVGID_00000018940503174240821050000013141116699188011662_);" width="15.71" height="27.48"/>
	</g>
	<path class="st22" d="M293.67,364.27l-2.51,1.92c-1.38-1.8-3.04-3.17-4.98-4.1c-1.94-0.93-4.07-1.4-6.39-1.4
		c-2.54,0-4.89,0.61-7.05,1.83c-2.16,1.22-3.84,2.85-5.03,4.91c-1.19,2.05-1.78,4.36-1.78,6.93c0,3.88,1.33,7.11,3.99,9.7
		c2.66,2.59,6.01,3.89,10.06,3.89c4.45,0,8.18-1.74,11.18-5.23l2.51,1.9c-1.59,2.02-3.56,3.58-5.93,4.68
		c-2.37,1.1-5.02,1.65-7.94,1.65c-5.56,0-9.95-1.85-13.16-5.56c-2.69-3.13-4.04-6.9-4.04-11.33c0-4.65,1.63-8.57,4.9-11.75
		c3.26-3.18,7.35-4.77,12.27-4.77c2.97,0,5.65,0.59,8.04,1.76C290.18,360.51,292.14,362.16,293.67,364.27"/>
	<path class="st22" d="M316.36,358.37l14.83,31.8h-3.43l-5-10.46h-13.7l-4.95,10.46h-3.54l15.02-31.8H316.36z M315.95,365.13
		l-5.45,11.51h10.87L315.95,365.13z"/>
	<path class="st22" d="M339.61,358.37h6.33c3.53,0,5.92,0.15,7.18,0.43c1.89,0.43,3.42,1.36,4.6,2.78c1.18,1.42,1.77,3.17,1.77,5.25
		c0,1.73-0.41,3.25-1.22,4.57c-0.81,1.31-1.98,2.31-3.49,2.98c-1.51,0.67-3.6,1.01-6.27,1.03l11.44,14.76h-3.93l-11.44-14.76h-1.8
		v14.76h-3.18V358.37z M342.78,361.49v10.81l5.48,0.04c2.12,0,3.69-0.2,4.71-0.6c1.02-0.4,1.81-1.05,2.38-1.93
		c0.57-0.89,0.86-1.88,0.86-2.97c0-1.07-0.29-2.04-0.87-2.91c-0.58-0.87-1.34-1.5-2.27-1.87c-0.94-0.37-2.5-0.56-4.68-0.56H342.78z"
		/>
	<path class="st22" d="M369.79,358.37h6.33c3.53,0,5.92,0.15,7.18,0.43c1.89,0.43,3.42,1.36,4.6,2.78c1.18,1.42,1.77,3.17,1.77,5.25
		c0,1.73-0.41,3.25-1.22,4.57c-0.81,1.31-1.98,2.31-3.49,2.98c-1.51,0.67-3.6,1.01-6.27,1.03l11.44,14.76h-3.93l-11.44-14.76h-1.8
		v14.76h-3.18V358.37z M372.97,361.49v10.81l5.48,0.04c2.12,0,3.69-0.2,4.71-0.6c1.02-0.4,1.81-1.05,2.38-1.93
		c0.57-0.89,0.86-1.88,0.86-2.97c0-1.07-0.29-2.04-0.87-2.91c-0.58-0.87-1.34-1.5-2.27-1.87c-0.94-0.37-2.5-0.56-4.68-0.56H372.97z"
		/>
	<path class="st22" d="M414.95,357.57c4.82,0,8.85,1.61,12.09,4.82c3.24,3.21,4.87,7.17,4.87,11.87c0,4.65-1.62,8.6-4.86,11.85
		c-3.24,3.24-7.19,4.86-11.84,4.86c-4.72,0-8.7-1.61-11.94-4.84c-3.24-3.23-4.87-7.13-4.87-11.71c0-3.05,0.74-5.89,2.22-8.49
		c1.48-2.61,3.49-4.65,6.04-6.13C409.22,358.31,411.98,357.57,414.95,357.57 M415.09,360.66c-2.35,0-4.58,0.61-6.69,1.84
		c-2.11,1.23-3.75,2.88-4.94,4.95c-1.18,2.08-1.78,4.39-1.78,6.94c0,3.78,1.31,6.97,3.93,9.57c2.62,2.6,5.78,3.9,9.47,3.9
		c2.47,0,4.75-0.6,6.85-1.8c2.1-1.2,3.74-2.83,4.91-4.91c1.18-2.08,1.76-4.38,1.76-6.92c0-2.52-0.59-4.81-1.76-6.85
		c-1.18-2.04-2.83-3.67-4.97-4.9C419.75,361.28,417.49,360.66,415.09,360.66"/>
	<path class="st22" d="M471.22,364.27l-2.51,1.92c-1.38-1.8-3.04-3.17-4.98-4.1c-1.94-0.93-4.07-1.4-6.39-1.4
		c-2.54,0-4.89,0.61-7.05,1.83c-2.16,1.22-3.84,2.85-5.03,4.91c-1.19,2.05-1.78,4.36-1.78,6.93c0,3.88,1.33,7.11,3.99,9.7
		c2.66,2.59,6.01,3.89,10.06,3.89c4.45,0,8.18-1.74,11.18-5.23l2.51,1.9c-1.59,2.02-3.56,3.58-5.93,4.68
		c-2.37,1.1-5.02,1.65-7.94,1.65c-5.56,0-9.95-1.85-13.16-5.56c-2.69-3.13-4.04-6.9-4.04-11.33c0-4.65,1.63-8.57,4.9-11.75
		c3.26-3.18,7.35-4.77,12.27-4.77c2.97,0,5.65,0.59,8.04,1.76C467.73,360.51,469.69,362.16,471.22,364.27"/>
	<polygon class="st22" points="480.94,358.37 499.16,358.37 499.16,361.49 484.11,361.49 484.11,371.45 499.03,371.45 
		499.03,374.56 484.11,374.56 484.11,387.06 499.03,387.06 499.03,390.17 480.94,390.17 	"/>
	<path class="st22" d="M508.14,358.37h6.33c3.53,0,5.92,0.15,7.18,0.43c1.89,0.43,3.42,1.36,4.6,2.78c1.18,1.42,1.77,3.17,1.77,5.25
		c0,1.73-0.41,3.25-1.22,4.57c-0.81,1.31-1.98,2.31-3.49,2.98c-1.51,0.67-3.6,1.01-6.27,1.03l11.44,14.76h-3.93l-11.44-14.76h-1.8
		v14.76h-3.18V358.37z M511.32,361.49v10.81l5.48,0.04c2.12,0,3.69-0.2,4.71-0.6c1.02-0.4,1.81-1.05,2.38-1.93
		c0.57-0.89,0.86-1.88,0.86-2.97c0-1.07-0.29-2.04-0.87-2.91c-0.58-0.87-1.34-1.5-2.27-1.87c-0.94-0.37-2.5-0.56-4.68-0.56H511.32z"
		/>
	<path class="st22" d="M540.77,349.21h4.65l-6.38,6.66h-2.98L540.77,349.21z M537.7,358.37h3.18v31.8h-3.18V358.37z"/>
	<path class="st22" d="M564.48,358.37l14.83,31.8h-3.43l-5-10.46h-13.7l-4.95,10.46h-3.54l15.02-31.8H564.48z M564.08,365.13
		l-5.45,11.51h10.87L564.08,365.13z"/>
</g>
</svg>
