<?xml version="1.0" encoding="utf-8"?>
<!-- Generator: Adobe Illustrator 23.0.1, SVG Export Plug-In . SVG Version: 6.00 Build 0)  -->
<svg version="1.1" id="Capa_1" xmlns="http://www.w3.org/2000/svg" xmlns:xlink="http://www.w3.org/1999/xlink" x="0px" y="0px"
	 viewBox="0 0 841.9 595.3" style="enable-background:new 0 0 841.9 595.3;" xml:space="preserve">
<style type="text/css">
	.st0{fill:#1F3556;}
	.st1{clip-path:url(#SVGID_2_);fill:url(#SVGID_3_);}
	.st2{fill:#C6C7CC;}
	.st3{fill:#CED0D3;}
	.st4{clip-path:url(#SVGID_5_);fill:url(#SVGID_6_);}
	.st5{clip-path:url(#SVGID_8_);fill:url(#SVGID_9_);}
	.st6{clip-path:url(#SVGID_11_);fill:url(#SVGID_12_);}
	.st7{clip-path:url(#SVGID_14_);fill:url(#SVGID_15_);}
	.st8{clip-path:url(#SVGID_17_);fill:url(#SVGID_18_);}
	.st9{clip-path:url(#SVGID_20_);fill:url(#SVGID_21_);}
	.st10{clip-path:url(#SVGID_23_);fill:url(#SVGID_24_);}
	.st11{clip-path:url(#SVGID_26_);fill:url(#SVGID_27_);}
	.st12{clip-path:url(#SVGID_29_);fill:url(#SVGID_30_);}
	.st13{clip-path:url(#SVGID_32_);fill:url(#SVGID_33_);}
	.st14{clip-path:url(#SVGID_35_);fill:url(#SVGID_36_);}
	.st15{clip-path:url(#SVGID_38_);fill:url(#SVGID_39_);}
	.st16{fill:#A18033;}
	.st17{fill:#CBA329;}
	.st18{fill:#D1B937;}
	.st19{fill:#B89043;}
	.st20{clip-path:url(#SVGID_41_);fill:url(#SVGID_42_);}
	.st21{clip-path:url(#SVGID_44_);fill:url(#SVGID_45_);}
	.st22{fill:#BF9A58;}
</style>
<!-- <rect x="-1.1" y="0.4" class="st0" width="841.9" height="594.5"/> -->
<g>
	<g>
		<g>
			<defs>
				<path id="SVGID_1_" d="M468.3,268.7c-7.5,5.6-32.4,14.6-45.3,18.6c-13-4-37.9-13-45.3-18.6c-4.8-3.6-5.4-6-5.4-6
					c0,0-0.1,0.1-0.2,0.1l-21.8,63.7c10.3,37.3,72.7,53.2,72.7,53.2h0c0,0,15.6-4,32.5-12.6c16.9-8.6,35-21.9,40.2-40.6L474,262.8
					c0,0-0.1-0.1-0.2-0.1C473.8,262.7,473.2,265.1,468.3,268.7"/>
			</defs>
			<clipPath id="SVGID_2_">
				<use xlink:href="#SVGID_1_"  style="overflow:visible;"/>
			</clipPath>
			
				<linearGradient id="SVGID_3_" gradientUnits="userSpaceOnUse" x1="27.058" y1="-4497.395" x2="30.5432" y2="-4497.395" gradientTransform="matrix(41.7122 0 0 41.7122 -778.3147 187917.4219)">
				<stop  offset="0" style="stop-color:#908E93"/>
				<stop  offset="0.184" style="stop-color:#908E93"/>
				<stop  offset="0.9995" style="stop-color:#DADBDE"/>
				<stop  offset="1" style="stop-color:#DADBDE"/>
			</linearGradient>
			<rect x="350.3" y="262.7" class="st1" width="145.4" height="117"/>
		</g>
	</g>
	<path class="st2" d="M423.3,287.2c-0.1,0-0.2,0.1-0.3,0.1c-13-4-37.9-13-45.3-18.6c-4.8-3.6-5.4-6-5.4-6c0,0-0.1,0.1-0.2,0.1
		l-21.8,63.7c10.3,37.3,72.7,53.1,72.7,53.1h0c0,0,0.1,0,0.3-0.1L423.3,287.2L423.3,287.2z"/>
	<path class="st3" d="M451.5,70.3c22.3,4.2,35.3,27.8,27.9,49.2l-4.3,12.5l-1.5,3.9c0,0.1-0.1,0.3-0.2,0.4c0,0-0.6-2.4-5.4-6
		c-1.4-1-3.4-2.2-5.8-3.4c-12.3-6.2-25.6-9.4-39.1-9.4c-13.6,0-27.2,3.1-39.7,9.4c-2.4,1.2-4.4,2.4-5.8,3.4c-4.8,3.6-5.4,6-5.4,6
		c0-0.1-0.1-0.3-0.2-0.4l-1.5-3.9l-4.3-12.5c-7.5-22.1,6.5-45.7,29.5-49.5c4.4-0.7,9-1.1,14-1.1h25.7
		C441.5,68.9,446.7,69.4,451.5,70.3"/>
	<g>
		<g>
			<defs>
				<path id="SVGID_4_" d="M423,68.9v48.6c0.1,0,0.2,0,0.3,0c13.4,0,26.8,3.2,39.1,9.4c2.4,1.2,4.4,2.4,5.8,3.4c4.8,3.6,5.4,6,5.4,6
					c0-0.1,0.1-0.3,0.1-0.4l1.5-3.9l4.3-12.5c7.3-21.5-5.7-45-27.9-49.2c-4.8-0.9-10-1.4-15.6-1.4H423z"/>
			</defs>
			<clipPath id="SVGID_5_">
				<use xlink:href="#SVGID_4_"  style="overflow:visible;"/>
			</clipPath>
			
				<linearGradient id="SVGID_6_" gradientUnits="userSpaceOnUse" x1="-10.4799" y1="-4451.8516" x2="-6.9948" y2="-4451.8516" gradientTransform="matrix(21.6595 -7.4554 7.4554 21.6595 33801.7188 96473.6406)">
				<stop  offset="0" style="stop-color:#908E93"/>
				<stop  offset="0.184" style="stop-color:#908E93"/>
				<stop  offset="0.9995" style="stop-color:#DADBDE"/>
				<stop  offset="1" style="stop-color:#DADBDE"/>
			</linearGradient>
			<polygon class="st4" points="402.3,76.1 480.1,49.3 507.6,129.2 429.8,156 			"/>
		</g>
	</g>
	<g>
		<g>
			<defs>
				<path id="SVGID_7_" d="M390.5,139.5c-1.9,1-3.4,1.9-4.5,2.7c-0.4,0.4-0.8,0.7-1.2,1c-1.3,1-2.1,2.4-2.7,3.9
					c2.3,17.1,3.5,34.6,3.5,52.4c0,17.8-1.2,35.3-3.5,52.5c0.5,1.5,1.4,2.9,2.7,3.9c0.3,0.2,0.6,0.5,1,0.8c1.1,0.8,2.7,1.8,4.7,2.8
					c20.6,10.5,45.2,10.5,65.7,0c1.9-1,3.5-1.9,4.6-2.8c0.4-0.3,0.8-0.6,1.1-0.8c1.2-1,2.2-2.4,2.7-3.8c-2.3-17.2-3.5-34.7-3.5-52.5
					c0-17.8,1.2-35.3,3.5-52.4c-0.5-1.5-1.5-2.9-2.7-3.9c-0.3-0.3-0.8-0.6-1.2-0.9c-1.1-0.8-2.7-1.7-4.5-2.7
					c-10.3-5.3-21.6-7.9-32.8-7.9C412,131.6,400.8,134.3,390.5,139.5"/>
			</defs>
			<clipPath id="SVGID_8_">
				<use xlink:href="#SVGID_7_"  style="overflow:visible;"/>
			</clipPath>
			
				<linearGradient id="SVGID_9_" gradientUnits="userSpaceOnUse" x1="28.8222" y1="-4447.9023" x2="32.3071" y2="-4447.9023" gradientTransform="matrix(23.663 0 0 23.663 -299.916 105451.5547)">
				<stop  offset="0" style="stop-color:#908E93"/>
				<stop  offset="0.184" style="stop-color:#908E93"/>
				<stop  offset="0.9995" style="stop-color:#DADBDE"/>
				<stop  offset="1" style="stop-color:#DADBDE"/>
			</linearGradient>
			<rect x="382.1" y="131.6" class="st5" width="82.5" height="138.4"/>
		</g>
	</g>
	<path class="st3" d="M423.3,131.6c-11.3,0-22.6,2.6-32.9,7.9c-1.9,1-3.4,1.9-4.5,2.7c-0.4,0.3-0.8,0.7-1.2,1
		c-1.3,1-2.1,2.4-2.7,3.9c2.3,17.1,3.5,34.6,3.5,52.4c0,17.8-1.2,35.3-3.5,52.5c0.5,1.5,1.4,2.9,2.7,4c0.3,0.2,0.7,0.5,1,0.8
		c1.1,0.8,2.7,1.8,4.7,2.8c10.3,5.3,21.6,7.9,32.9,7.9L423.3,131.6L423.3,131.6z"/>
	<g>
		<g>
			<defs>
				<path id="SVGID_10_" d="M346.1,162.6c0,6.9,2.3,13.6,6.7,19l22.3,27.8v-21.5c0-11.6-2.4-23.1-7-33.7L346.1,104L346.1,162.6
					L346.1,162.6z"/>
			</defs>
			<clipPath id="SVGID_11_">
				<use xlink:href="#SVGID_10_"  style="overflow:visible;"/>
			</clipPath>
			
				<linearGradient id="SVGID_12_" gradientUnits="userSpaceOnUse" x1="31.7065" y1="-4231.2739" x2="35.1926" y2="-4231.2739" gradientTransform="matrix(8.3013 0 0 8.3013 91.6735 35281.7266)">
				<stop  offset="0" style="stop-color:#DADBDE"/>
				<stop  offset="4.960320e-04" style="stop-color:#DADBDE"/>
				<stop  offset="0.816" style="stop-color:#908E93"/>
				<stop  offset="1" style="stop-color:#908E93"/>
			</linearGradient>
			<rect x="346.1" y="103.9" class="st6" width="28.9" height="105.4"/>
		</g>
	</g>
	<g>
		<g>
			<defs>
				<path id="SVGID_13_" d="M346.1,290.8l23.2-42.3c3.8-6.8,5.7-14.5,5.7-22.3v-2.9c0-3.5-1.5-6.9-4.1-9.3l-24.8-22.3L346.1,290.8
					L346.1,290.8z"/>
			</defs>
			<clipPath id="SVGID_14_">
				<use xlink:href="#SVGID_13_"  style="overflow:visible;"/>
			</clipPath>
			
				<linearGradient id="SVGID_15_" gradientUnits="userSpaceOnUse" x1="31.7293" y1="-4224.0083" x2="35.2154" y2="-4224.0083" gradientTransform="matrix(8.3013 0 0 8.3013 91.7505 35305.9922)">
				<stop  offset="0" style="stop-color:#DADBDE"/>
				<stop  offset="4.960320e-04" style="stop-color:#DADBDE"/>
				<stop  offset="0.816" style="stop-color:#908E93"/>
				<stop  offset="1" style="stop-color:#908E93"/>
			</linearGradient>
			<rect x="346.1" y="191.6" class="st7" width="28.9" height="99.2"/>
		</g>
	</g>
	<g>
		<g>
			<defs>
				<path id="SVGID_16_" d="M478,154.2c-4.6,10.6-7,22.1-7,33.7v21.5l22.3-27.8c4.3-5.4,6.7-12.1,6.7-19v-58.6L478,154.2z"/>
			</defs>
			<clipPath id="SVGID_17_">
				<use xlink:href="#SVGID_16_"  style="overflow:visible;"/>
			</clipPath>
			
				<linearGradient id="SVGID_18_" gradientUnits="userSpaceOnUse" x1="41.0456" y1="-4231.2739" x2="44.5316" y2="-4231.2739" gradientTransform="matrix(8.3013 0 0 8.3013 122.8721 35281.7266)">
				<stop  offset="0" style="stop-color:#908E93"/>
				<stop  offset="0.184" style="stop-color:#908E93"/>
				<stop  offset="0.9995" style="stop-color:#DADBDE"/>
				<stop  offset="1" style="stop-color:#DADBDE"/>
			</linearGradient>
			<rect x="471" y="103.9" class="st8" width="28.9" height="105.4"/>
		</g>
	</g>
	<g>
		<g>
			<defs>
				<path id="SVGID_19_" d="M499,106c-0.4,4.3-0.4,8.6-0.5,12.9c-0.1,4.9-0.9,32.8-2,40.9c-1,8-2.5,14.4-6.2,21
					c-4,7-8.2,14.2-13.3,20.5c-2,2.5-4.1,4.9-6,7.5v0.6l22.3-27.8c4.3-5.4,6.7-12.1,6.7-19v-58.6L499,106z"/>
			</defs>
			<clipPath id="SVGID_20_">
				<use xlink:href="#SVGID_19_"  style="overflow:visible;"/>
			</clipPath>
			
				<linearGradient id="SVGID_21_" gradientUnits="userSpaceOnUse" x1="42.8411" y1="-4231.2935" x2="46.3272" y2="-4231.2935" gradientTransform="matrix(8.3013 0 0 8.3013 128.8734 35281.8867)">
				<stop  offset="0" style="stop-color:#908E93"/>
				<stop  offset="0.184" style="stop-color:#908E93"/>
				<stop  offset="0.9995" style="stop-color:#DADBDE"/>
				<stop  offset="1" style="stop-color:#DADBDE"/>
			</linearGradient>
			<!-- <rect x="471" y="103.9" class="st9" width="28.9" height="105.4"/> -->
		</g>
	</g>
	<g>
		<g>
			<defs>
				<path id="SVGID_22_" d="M475.1,213.9c-2.6,2.4-4.1,5.8-4.1,9.3v2.9c0,7.8,2,15.5,5.7,22.3l23.2,42.3v-99.2L475.1,213.9z"/>
			</defs>
			<clipPath id="SVGID_23_">
				<use xlink:href="#SVGID_22_"  style="overflow:visible;"/>
			</clipPath>
			
				<linearGradient id="SVGID_24_" gradientUnits="userSpaceOnUse" x1="41.0186" y1="-4224.0083" x2="44.5047" y2="-4224.0083" gradientTransform="matrix(8.3013 0 0 8.3013 122.7822 35305.9922)">
				<stop  offset="0" style="stop-color:#908E93"/>
				<stop  offset="0.184" style="stop-color:#908E93"/>
				<stop  offset="0.9995" style="stop-color:#DADBDE"/>
				<stop  offset="1" style="stop-color:#DADBDE"/>
			</linearGradient>
			<rect x="471" y="191.6" class="st10" width="28.9" height="99.2"/>
		</g>
	</g>
	<g>
		<g>
			<defs>
				<path id="SVGID_25_" d="M496.8,250.5c-0.3,3.6-0.1,14-4.2,14c-4.1,0-8.3-6.2-11.6-11c-2-3-4.9-7.7-6.9-10.7
					c0.8,1.9,1.6,3.8,2.6,5.7l23.2,42.3v-99.2C499.9,191.6,497.2,244.5,496.8,250.5"/>
			</defs>
			<clipPath id="SVGID_26_">
				<use xlink:href="#SVGID_25_"  style="overflow:visible;"/>
			</clipPath>
			
				<linearGradient id="SVGID_27_" gradientUnits="userSpaceOnUse" x1="34.3487" y1="-4385.8325" x2="37.8338" y2="-4385.8325" gradientTransform="matrix(15.715 0 0 15.715 -67.3482 69164.5781)">
				<stop  offset="0" style="stop-color:#908E93"/>
				<stop  offset="0.184" style="stop-color:#908E93"/>
				<stop  offset="0.9995" style="stop-color:#DADBDE"/>
				<stop  offset="1" style="stop-color:#DADBDE"/>
			</linearGradient>
			<!-- <rect x="474.1" y="191.6" class="st11" width="25.8" height="99.2"/> -->
		</g>
	</g>
	<g>
		<g>
			<defs>
				<path id="SVGID_28_" d="M346.1,162.6c0,6.9,2.3,13.6,6.7,19l22.3,27.8v-0.6c-1.9-2.6-4-5-6-7.5c-5.1-6.3-9.3-13.5-13.3-20.5
					c-3.7-6.5-5.2-13-6.2-21c-1-8.1-1.8-36.1-2-40.9c-0.1-4.3-0.2-8.6-0.5-12.9l-0.9-2.1L346.1,162.6L346.1,162.6z"/>
			</defs>
			<clipPath id="SVGID_29_">
				<use xlink:href="#SVGID_28_"  style="overflow:visible;"/>
			</clipPath>
			
				<linearGradient id="SVGID_30_" gradientUnits="userSpaceOnUse" x1="19.72" y1="-4231.2935" x2="23.2061" y2="-4231.2935" gradientTransform="matrix(-8.3013 0 0 8.3013 525.2574 35281.8867)">
				<stop  offset="0" style="stop-color:#908E93"/>
				<stop  offset="0.184" style="stop-color:#908E93"/>
				<stop  offset="0.9995" style="stop-color:#DADBDE"/>
				<stop  offset="1" style="stop-color:#DADBDE"/>
			</linearGradient>
			<!-- <rect x="346.1" y="103.9" class="st12" width="28.9" height="105.4"/> -->
		</g>
	</g>
	<g>
		<g>
			<defs>
				<path id="SVGID_31_" d="M346.1,290.8l23.2-42.3c1-1.8,1.9-3.8,2.6-5.7c-2,3-4.9,7.7-6.9,10.7c-3.3,4.8-7.5,11-11.5,11
					c-4.2,0-4-10.5-4.2-14c-0.5-6-3.1-58.9-3.1-58.9L346.1,290.8L346.1,290.8z"/>
			</defs>
			<clipPath id="SVGID_32_">
				<use xlink:href="#SVGID_31_"  style="overflow:visible;"/>
			</clipPath>
			
				<linearGradient id="SVGID_33_" gradientUnits="userSpaceOnUse" x1="22.1348" y1="-4385.8325" x2="25.6198" y2="-4385.8325" gradientTransform="matrix(-15.715 0 0 15.715 721.4791 69164.5781)">
				<stop  offset="0" style="stop-color:#908E93"/>
				<stop  offset="0.184" style="stop-color:#908E93"/>
				<stop  offset="0.9995" style="stop-color:#DADBDE"/>
				<stop  offset="1" style="stop-color:#DADBDE"/>
			</linearGradient>
			<!-- <rect x="346.1" y="191.6" class="st13" width="25.8" height="99.2"/> -->
		</g>
	</g>
	<g>
		<g>
			<defs>
				<path id="SVGID_34_" d="M372.1,262.8l-21.8,63.7c6.8,24.8,36.7,40.1,56,47.6c-3.8-3-17.3-12.7-23.4-17.7
					c-8.6-7.1-16.4-16.2-20.3-26.9c-2-5.4-2.6-11.4-2.3-17.1c0.5-7.5,9.9-36.6,10.4-39.3c0.5-3,1.2-6.1,2.3-9
					c-0.6-0.9-0.7-1.4-0.7-1.4C372.2,262.7,372.2,262.8,372.1,262.8"/>
			</defs>
			<clipPath id="SVGID_35_">
				<use xlink:href="#SVGID_34_"  style="overflow:visible;"/>
			</clipPath>
			
				<linearGradient id="SVGID_36_" gradientUnits="userSpaceOnUse" x1="27.058" y1="-4497.4429" x2="30.543" y2="-4497.4429" gradientTransform="matrix(41.7122 0 0 41.7122 -778.3147 187916.625)">
				<stop  offset="0" style="stop-color:#908E93"/>
				<stop  offset="0.184" style="stop-color:#908E93"/>
				<stop  offset="0.9995" style="stop-color:#DADBDE"/>
				<stop  offset="1" style="stop-color:#DADBDE"/>
			</linearGradient>
			<!-- <rect x="350.3" y="262.7" class="st14" width="56" height="111.4"/> -->
		</g>
	</g>
	<g>
		<g>
			<defs>
				<path id="SVGID_37_" d="M480.6,307.5c1.1,6.3,2,12.8,1.2,19.3c-0.7,5.5-2.6,11-5.3,15.9c-5,8.7-13,15.2-21.5,20.4
					c-8.8,5.4-18.1,10.4-27.5,14.7c0.3,0.1,0.7,0.2,1,0.3c6-1.9,16.2-5.5,27.1-11c16.9-8.6,35-21.9,40.2-40.6l-20.9-61.2
					C475,279.6,478.2,293.4,480.6,307.5"/>
			</defs>
			<clipPath id="SVGID_38_">
				<use xlink:href="#SVGID_37_"  style="overflow:visible;"/>
			</clipPath>
			
				<linearGradient id="SVGID_39_" gradientUnits="userSpaceOnUse" x1="21.5842" y1="-4636.6685" x2="25.0692" y2="-4636.6685" gradientTransform="matrix(-41.7122 0 0 -41.7122 1447.0876 -193083.9531)">
				<stop  offset="0" style="stop-color:#908E93"/>
				<stop  offset="0.184" style="stop-color:#908E93"/>
				<stop  offset="0.9995" style="stop-color:#DADBDE"/>
				<stop  offset="1" style="stop-color:#DADBDE"/>
			</linearGradient>
			<!-- <rect x="427.5" y="265.3" class="st15" width="68.2" height="112.8"/> -->
		</g>
	</g>
	<path class="st16" d="M433.2,223.6v10.7c0,5.6-4.5,10.2-10.2,10.2c-5.6,0-10.2-4.5-10.2-10.2v-65.5c0-5.6,4.5-10.2,10.2-10.2
		c5.6,0,10.2,4.5,10.2,10.2v24.9c0,0.6,0.7,0.9,1.2,0.5l11.6-9.9c2.2-1.8,3.4-4.5,3.4-7.4v-12c0-2.1-0.7-4-2.1-5.3
		c-0.2-0.2-0.5-0.5-0.8-0.7c-3.9-3.5-16.8-8.9-23.5-11.4c-6.7,2.5-19.7,8-23.5,11.4c-0.3,0.2-0.5,0.5-0.8,0.7c-1.3,1.3-2,3.3-2,5.3
		v73.2c0,2,0.7,4,2.1,5.3c0.2,0.2,0.4,0.4,0.7,0.6c3.9,3.5,16.9,9,23.6,11.4c6.8-2.5,19.7-8,23.6-11.4c0.2-0.2,0.5-0.4,0.7-0.6
		c1.3-1.3,2.1-3.3,2.1-5.3v-31.1c0-0.6-0.7-0.9-1.2-0.5l-11.5,9.6C434.5,218,433.2,220.7,433.2,223.6"/>
	<path class="st17" d="M433.2,221.5v10.7c0,5.6-4.5,10.2-10.2,10.2c-5.6,0-10.2-4.5-10.2-10.2v-65.5c0-5.6,4.5-10.2,10.2-10.2
		c5.6,0,10.2,4.5,10.2,10.2v24.9c0,0.6,0.7,0.9,1.2,0.5l11.6-9.9c2.2-1.8,3.4-4.5,3.4-7.4v-12c0-2.1-0.7-4-2.1-5.3
		c-0.2-0.2-0.5-0.5-0.8-0.7c-3.9-3.5-16.8-8.9-23.5-11.4c-6.7,2.5-19.7,8-23.5,11.4c-0.3,0.2-0.5,0.5-0.8,0.7c-1.3,1.3-2,3.3-2,5.3
		v73.2c0,2,0.7,4,2.1,5.3c0.2,0.2,0.4,0.4,0.7,0.6c3.9,3.5,16.9,9,23.6,11.4c6.8-2.5,19.7-8,23.6-11.4c0.2-0.2,0.5-0.4,0.7-0.6
		c1.3-1.3,2.1-3.3,2.1-5.3V205c0-0.6-0.7-0.9-1.2-0.5l-11.5,9.6C434.5,216,433.2,218.7,433.2,221.5"/>
	<path class="st18" d="M413.5,248.9c-3.8-1.6-12.2-5.9-13.8-7.5c-2.3-2.3-2.5-5.1-2.5-8.2c0-2.9-0.2-13.7-0.6-15.9v18.8
		c0,2,0.7,4,2.1,5.3c0.2,0.2,0.4,0.4,0.7,0.6c3.9,3.5,16.9,9,23.6,11.4v-0.7C423,252.8,416.5,250.1,413.5,248.9"/>
	<path class="st19" d="M448.2,204.5l-11.5,9.6c-2.2,1.8-3.5,4.5-3.5,7.4v10.7c0,5.6-4.5,10.2-10.2,10.2v11c6.8-2.5,19.7-8,23.6-11.4
		c0.2-0.2,0.5-0.4,0.7-0.6c1.3-1.3,2-3.3,2-5.3V205C449.4,204.4,448.7,204.1,448.2,204.5"/>
	<path class="st19" d="M447.3,157.7c-0.2-0.2-0.5-0.5-0.8-0.7c-3.9-3.5-16.8-8.9-23.5-11.4v11c5.6,0,10.2,4.5,10.2,10.2v24.9
		c0,0.6,0.7,0.9,1.2,0.5l11.6-9.9c2.2-1.8,3.4-4.5,3.4-7.4v-12C449.4,160.9,448.6,159,447.3,157.7"/>
	<path class="st18" d="M444.6,156.2c4.7,2.9,4.6,6.9,4.8,7.2V163c0-2.1-0.7-4-2.1-5.3c-0.2-0.2-0.5-0.5-0.8-0.7
		c-3.9-3.5-16.8-8.9-23.5-11.4v0.7C432.8,149.9,441.8,154.5,444.6,156.2"/>
	<g>
		<g>
			<defs>
				<path id="SVGID_40_" d="M366.6,119.5l4.3,12.5l1.5,3.9c0,0.1,0.1,0.3,0.2,0.4c0,0,0.6-2.4,5.4-6c1.4-1,3.4-2.2,5.8-3.4
					c3.8-1.9,7.7-3.5,11.8-4.9c-0.6-0.1-2.8,0.1-5.5,0.4c-4.2,0.4-9.6,0.9-12.4-0.2c-7.8-3.2-12.3-24.4-2.5-37.7
					c4.2-5.7,9.2-10.5,17.1-13.6C371.5,76.6,359.5,98.7,366.6,119.5"/>
			</defs>
			<clipPath id="SVGID_41_">
				<use xlink:href="#SVGID_40_"  style="overflow:visible;"/>
			</clipPath>
			
				<linearGradient id="SVGID_42_" gradientUnits="userSpaceOnUse" x1="32.1191" y1="-4256.9268" x2="35.6039" y2="-4256.9268" gradientTransform="matrix(8.8661 0 0 8.8661 79.7569 37845.9141)">
				<stop  offset="0" style="stop-color:#908E93"/>
				<stop  offset="0.184" style="stop-color:#908E93"/>
				<stop  offset="0.9995" style="stop-color:#DADBDE"/>
				<stop  offset="1" style="stop-color:#DADBDE"/>
			</linearGradient>
			<!-- <rect x="359.5" y="70.9" class="st20" width="36" height="65.5"/> -->
		</g>
	</g>
	<g>
		<g>
			<defs>
				<path id="SVGID_43_" d="M468.5,81.7c8.3,10,8.7,19.6,7.2,28.8c-1.1,6.8-5.5,15.5-12.5,16.9c2,1.1,3.7,2.1,4.9,3
					c4.8,3.6,5.4,6,5.4,6c0-0.1,0.1-0.3,0.1-0.4l1.5-3.9l4.3-12.5c7.3-21.5-5.7-45-27.9-49.2c-0.9-0.2-1.8-0.3-2.7-0.4
					C456.4,72.3,464.3,76.7,468.5,81.7"/>
			</defs>
			<clipPath id="SVGID_44_">
				<use xlink:href="#SVGID_43_"  style="overflow:visible;"/>
			</clipPath>
			
				<linearGradient id="SVGID_45_" gradientUnits="userSpaceOnUse" x1="38.1728" y1="-4274.4048" x2="41.6576" y2="-4274.4048" gradientTransform="matrix(9.394 0 0 9.394 90.2188 40256.8398)">
				<stop  offset="0" style="stop-color:#908E93"/>
				<stop  offset="0.184" style="stop-color:#908E93"/>
				<stop  offset="0.9995" style="stop-color:#DADBDE"/>
				<stop  offset="1" style="stop-color:#DADBDE"/>
			</linearGradient>
			<!-- <rect x="448.8" y="69.8" class="st21" width="38" height="66.5"/> -->
		</g>
	</g>
	<path class="st22" d="M112.7,456l-6.1,4.6c-3.3-4.4-7.4-7.7-12-9.9c-4.7-2.3-9.8-3.4-15.5-3.4c-6.1,0-11.8,1.5-17.1,4.4
		c-5.2,3-9.3,6.9-12.2,11.9c-2.9,5-4.3,10.5-4.3,16.8c0,9.4,3.2,17.2,9.7,23.5c6.4,6.3,14.5,9.4,24.3,9.4c10.8,0,19.8-4.2,27.1-12.7
		l6.1,4.6c-3.8,4.9-8.6,8.7-14.3,11.3s-12.1,4-19.2,4c-13.5,0-24.1-4.5-31.8-13.5c-6.5-7.6-9.8-16.7-9.8-27.4
		c0-11.3,3.9-20.7,11.9-28.4c7.9-7.7,17.8-11.5,29.7-11.5c7.2,0,13.7,1.4,19.5,4.3C104.2,446.9,109,450.9,112.7,456"/>
	<path class="st22" d="M167.6,441.7l35.9,76.9h-8.3l-12.1-25.3h-33.1l-12,25.3h-8.6l36.3-76.9H167.6z M166.6,458l-13.2,27.9h26.3
		L166.6,458z"/>
	<path class="st22" d="M223.8,441.7h15.3c8.5,0,14.3,0.4,17.4,1c4.6,1,8.3,3.3,11.1,6.7c2.9,3.4,4.3,7.7,4.3,12.7
		c0,4.2-1,7.9-3,11.1c-2,3.2-4.8,5.6-8.4,7.2c-3.7,1.6-8.7,2.4-15.2,2.5l27.7,35.7h-9.5l-27.7-35.7h-4.4v35.7h-7.7L223.8,441.7
		L223.8,441.7z M231.5,449.2v26.2l13.3,0.1c5.1,0,8.9-0.5,11.4-1.5c2.5-1,4.4-2.5,5.8-4.7c1.4-2.2,2.1-4.5,2.1-7.2
		c0-2.6-0.7-4.9-2.1-7c-1.4-2.1-3.2-3.6-5.5-4.5c-2.3-0.9-6-1.4-11.3-1.4L231.5,449.2L231.5,449.2z"/>
	<path class="st22" d="M296.9,441.7h15.3c8.5,0,14.3,0.4,17.4,1c4.6,1,8.3,3.3,11.1,6.7c2.9,3.4,4.3,7.7,4.3,12.7
		c0,4.2-1,7.9-3,11.1c-2,3.2-4.8,5.6-8.4,7.2c-3.7,1.6-8.7,2.4-15.2,2.5l27.7,35.7h-9.5l-27.7-35.7h-4.4v35.7h-7.7L296.9,441.7
		L296.9,441.7z M304.6,449.2v26.2l13.3,0.1c5.1,0,8.9-0.5,11.4-1.5c2.5-1,4.4-2.5,5.8-4.7c1.4-2.2,2.1-4.5,2.1-7.2
		c0-2.6-0.7-4.9-2.1-7c-1.4-2.1-3.2-3.6-5.5-4.5c-2.3-0.9-6-1.4-11.3-1.4L304.6,449.2L304.6,449.2z"/>
	<path class="st22" d="M406.1,439.8c11.7,0,21.4,3.9,29.3,11.7c7.8,7.8,11.8,17.3,11.8,28.7c0,11.3-3.9,20.8-11.8,28.7
		c-7.8,7.8-17.4,11.8-28.6,11.8c-11.4,0-21.1-3.9-28.9-11.7c-7.8-7.8-11.8-17.3-11.8-28.3c0-7.4,1.8-14.3,5.4-20.5
		c3.6-6.3,8.4-11.3,14.6-14.8C392.3,441.5,398.9,439.8,406.1,439.8 M406.5,447.2c-5.7,0-11.1,1.5-16.2,4.5c-5.1,3-9.1,7-12,12
		c-2.9,5-4.3,10.6-4.3,16.8c0,9.1,3.2,16.9,9.5,23.2c6.3,6.3,14,9.4,22.9,9.4c6,0,11.5-1.5,16.6-4.4c5.1-2.9,9-6.8,11.9-11.9
		c2.9-5,4.3-10.6,4.3-16.7c0-6.1-1.4-11.6-4.3-16.6c-2.9-4.9-6.8-8.9-12-11.9C417.7,448.7,412.3,447.2,406.5,447.2"/>
	<path class="st22" d="M542.3,456l-6.1,4.6c-3.3-4.4-7.4-7.7-12-9.9c-4.7-2.3-9.8-3.4-15.5-3.4c-6.1,0-11.8,1.5-17.1,4.4
		c-5.2,3-9.3,6.9-12.2,11.9c-2.9,5-4.3,10.5-4.3,16.8c0,9.4,3.2,17.2,9.7,23.5c6.4,6.3,14.5,9.4,24.3,9.4c10.8,0,19.8-4.2,27.1-12.7
		l6.1,4.6c-3.8,4.9-8.6,8.7-14.3,11.3c-5.7,2.7-12.1,4-19.2,4c-13.5,0-24.1-4.5-31.8-13.5c-6.5-7.6-9.8-16.7-9.8-27.4
		c0-11.3,3.9-20.7,11.9-28.4c7.9-7.7,17.8-11.5,29.7-11.5c7.2,0,13.7,1.4,19.5,4.3C533.8,446.9,538.6,450.9,542.3,456"/>
	<polygon class="st22" points="565.8,441.7 609.9,441.7 609.9,449.2 573.5,449.2 573.5,473.3 609.6,473.3 609.6,480.9 573.5,480.9 
		573.5,511.1 609.6,511.1 609.6,518.6 565.8,518.6 	"/>
	<path class="st22" d="M631.6,441.7h15.3c8.5,0,14.3,0.4,17.4,1c4.6,1,8.3,3.3,11.1,6.7c2.9,3.4,4.3,7.7,4.3,12.7
		c0,4.2-1,7.9-3,11.1c-2,3.2-4.8,5.6-8.4,7.2c-3.7,1.6-8.7,2.4-15.2,2.5l27.7,35.7h-9.5l-27.7-35.7h-4.4v35.7h-7.7L631.6,441.7
		L631.6,441.7z M639.3,449.2v26.2l13.3,0.1c5.1,0,8.9-0.5,11.4-1.5c2.5-1,4.4-2.5,5.8-4.7c1.4-2.2,2.1-4.5,2.1-7.2
		c0-2.6-0.7-4.9-2.1-7c-1.4-2.1-3.2-3.6-5.5-4.5c-2.3-0.9-6-1.4-11.3-1.4L639.3,449.2L639.3,449.2z"/>
	<path class="st22" d="M710.6,419.5h11.3l-15.4,16.1h-7.2L710.6,419.5z M703.1,441.7h7.7v76.9h-7.7V441.7z"/>
	<path class="st22" d="M767.9,441.7l35.9,76.9h-8.3l-12.1-25.3h-33.1l-12,25.3h-8.6l36.3-76.9H767.9z M767,458l-13.2,27.9h26.3
		L767,458z"/>
</g>
</svg>
